{
    "asset" : {
        "generator" : "Khronos glTF Blender I/O v1.7.33",
        "version" : "2.0"
    },
    "scene" : 0,
    "scenes" : [
        {
            "name" : "Scene",
            "nodes" : [
                0
            ]
        }
    ],
    "nodes" : [
        {
            "mesh" : 0,
            "name" : "SOLDATO(1)",
            "scale" : [
                1,
                1,
                0.8436866402626038
            ],
            "translation" : [
                0.018338561058044434,
                0.11426402628421783,
                0.1107463613152504
            ]
        }
    ],
    "materials" : [
        {
            "doubleSided" : true,
            "name" : "diffuse_0",
            "pbrMetallicRoughness" : {
                "baseColorFactor" : [
                    0.800000011920929,
                    0.800000011920929,
                    0.800000011920929,
                    1
                ],
                "metallicFactor" : 0,
                "roughnessFactor" : 0.5
            }
        }
    ],
    "meshes" : [
        {
            "name" : "SOLDATO(1)",
            "primitives" : [
                {
                    "attributes" : {
                        "POSITION" : 0,
                        "TEXCOORD_0" : 1
                    },
                    "indices" : 2,
                    "material" : 0
                }
            ]
        }
    ],
    "accessors" : [
        {
            "bufferView" : 0,
            "componentType" : 5126,
            "count" : 7529,
            "max" : [
                0.07221999764442444,
                0.10865999758243561,
                -0.10830599814653397
            ],
            "min" : [
                -0.09202399849891663,
                -0.11027000099420547,
                -0.1592860072851181
            ],
            "type" : "VEC3"
        },
        {
            "bufferView" : 1,
            "componentType" : 5126,
            "count" : 7529,
            "type" : "VEC2"
        },
        {
            "bufferView" : 2,
            "componentType" : 5123,
            "count" : 38784,
            "type" : "SCALAR"
        }
    ],
    "bufferViews" : [
        {
            "buffer" : 0,
            "byteLength" : 90348,
            "byteOffset" : 0
        },
        {
            "buffer" : 0,
            "byteLength" : 60232,
            "byteOffset" : 90348
        },
        {
            "buffer" : 0,
            "byteLength" : 77568,
            "byteOffset" : 150580
        }
    ],
    "buffers" : [
        {
            "byteLength" : 228148,
            "uri" : "data:application/octet-stream;base64,"
        }
    ]
}
