{
	"asset":{
		"generator":"Khronos glTF Blender I/O v3.5.30",
		"version":"2.0"
	},
	"extensionsUsed":[
		"KHR_materials_specular",
		"KHR_materials_ior"
	],
	"scene":0,
	"scenes":[
		{
			"name":"Scene",
			"nodes":[
				0
			]
		}
	],
	"nodes":[
		{
			"mesh":0,
			"name":"SOLDATO(1)",
			"rotation":[
				0.7071068286895752,
				0,
				0,
				0.7071068286895752
			]
		}
	],
	"materials":[
		{
			"doubleSided":true,
			"extensions":{
				"KHR_materials_specular":{
					"specularColorFactor":[
						2.371357614441398,
						2.371357614441398,
						2.371357614441398
					]
				},
				"KHR_materials_ior":{
					"ior":1.4500000476837158
				}
			},
			"name":"diffuse_0",
			"pbrMetallicRoughness":{
				"baseColorFactor":[
					0,
					0,
					0,
					1
				],
				"metallicFactor":0
			}
		}
	],
	"meshes":[
		{
			"name":"SOLDATO(1)",
			"primitives":[
				{
					"attributes":{
						"POSITION":0,
						"TEXCOORD_0":1,
						"NORMAL":2
					},
					"indices":3,
					"material":0
				}
			]
		}
	],
	"accessors":[
		{
			"bufferView":0,
			"componentType":5126,
			"count":13003,
			"max":[
				2.506854772567749,
				3.824089288711548,
				-4.448718070983887
			],
			"min":[
				-3.19429087638855,
				-3.8807687759399414,
				-6.542716979980469
			],
			"type":"VEC3"
		},
		{
			"bufferView":1,
			"componentType":5126,
			"count":13003,
			"type":"VEC2"
		},
		{
			"bufferView":2,
			"componentType":5126,
			"count":13003,
			"type":"VEC3"
		},
		{
			"bufferView":3,
			"componentType":5123,
			"count":38784,
			"type":"SCALAR"
		}
	],
	"bufferViews":[
		{
			"buffer":0,
			"byteLength":156036,
			"byteOffset":0,
			"target":34962
		},
		{
			"buffer":0,
			"byteLength":104024,
			"byteOffset":156036,
			"target":34962
		},
		{
			"buffer":0,
			"byteLength":156036,
			"byteOffset":260060,
			"target":34962
		},
		{
			"buffer":0,
			"byteLength":77568,
			"byteOffset":416096,
			"target":34963
		}
	],
	"buffers":[
		{
			"byteLength":493664,
			"uri":"data:application/octet-stream;base64,"
		}
	]
}
